<svg xmlns="http://www.w3.org/2000/svg" viewBox="0 0 32.02 32.02"><defs><style>.cls-1{fill:none;stroke:#d83e20;stroke-miterlimit:10;stroke-width:0.76px;}.cls-2{fill:#d83e20;}</style></defs><title>resetBtn</title><g id="Calque_2" data-name="Calque 2"><g id="Calque_1-2" data-name="Calque 1"><circle class="cls-1" cx="16.01" cy="16.01" r="15.63"/><path class="cls-2" d="M16.11,24.25a8.24,8.24,0,0,1-5.62-2.2l.87-.93A7,7,0,0,0,23.09,16h1.28A8.27,8.27,0,0,1,16.11,24.25Z"/><polygon class="cls-2" points="13.1 20.72 9.12 19.06 9.68 23.34 13.1 20.72"/><path class="cls-2" d="M9.12,16H7.84A8.27,8.27,0,0,1,21.72,9.93l-.86.94A7,7,0,0,0,9.12,16Z"/><polygon class="cls-2" points="19.11 11.27 23.09 12.93 22.54 8.65 19.11 11.27"/></g></g></svg>